<?xml version="1.0" encoding="UTF-8"?>
<svg xmlns="http://www.w3.org/2000/svg" id="a" viewBox="0 0 170 270">
  <defs>
    <style>.b{fill:#010101;stroke-width:0px;}</style>
  </defs>
  <path class="b" d="m200.19885-1H-30.19885v269.32367c.01202.00073.02411.00006.03613.00085.159.01074.31842.06915.45477.15704.15588.10059.22064.42096.40131.39508.27704-.03979.38861-.48468.66199-.54761.2179-.05029.40332.25055.62646.25073.21863.00018.39459-.22845.6123-.24982.14032-.01379.33771.01538.39838.15057.05139.11505-.15631.20471-.18353.32874-.00964.04401.05334.11816.09033.09583.22766-.13715.36523-.43231.6134-.52014.11298-.03992.18762.20258.3064.19489.21912-.01434.39661-.21844.61346-.25494.20428-.03436.46454-.09894.61871.04755.12451.11841-.17548.53394-.00848.53265.263-.00195.37939-.39459.60547-.53711.09125-.0575.20947-.04364.31537-.04309.20685.00098.46466-.09894.61865.04755.12457.11841-.17548.52924-.00836.53265.26147.00543.36511-.43237.61334-.5202.11285-.03992.18732.19824.30627.19489.11963-.00336.1814-.1853.29828-.21198.20471-.04688.42358-.04688.62836-.00006.117.02673.17865.21204.29822.21198.11975,0,.18268-.17938.29828-.2121.20038-.0567.41302-.0473.62036-.04767.31207-.00061.63672-.05219.9353.04443.32947.10669.55402.49908.89526.54828.13702.01971-.13647-.29529-.08472-.4314.03912-.10284.1994-.16528.29309-.11652.20105.10468.25854.42773.46783.51239.08868.03583.04883-.20703.11902-.27496.22144-.21417.44812-.45544.73389-.55023.11707-.03888.1922.20081.31482.20239.11877.00153.20398-.25946.30579-.19446.29169.18628.34192.72473.67065.81793.18585.05273.13593-.42108.06238-.61011-.08643-.22229-.45068-.25989-.49274-.49622-.02466-.13843.28259-.17938.38763-.09344.39117.32013.59003.85181.96149,1.19739.05579.05188.02856-.1828.09723-.21252.56409-.24506,1.3822-.06445,1.74292-.58661.25378-.36749-.8573-.11737-1.28448-.07727-.21936.02057-.40076.30865-.61523.25562-.13617-.03369-.16956-.30341-.10071-.43268.07098-.13354.2655-.14496.40973-.14825,1.32874-.0304,2.6615-.05634,3.98694.04767.08282.00653.03986.1922-.00751.26465-.19904.30444-.50189.52069-.70367.823-.02466.03693.05457.12054.09033.09607.4397-.30011.78809-.74402,1.24725-1.00903.2663-.15381.58246-.20184.88489-.22168.43274-.02838,1.30225-.38232,1.29852.07855-.00403.49365-.93915.21649-1.30341.52252-.16504.13867.41937.04419.6297.04358.20734-.00067.42004.00922.62048-.04742.11536-.03253.17859-.20166.29755-.21167.09625-.00818.15485.20526.24408.16595.1889-.08325.24164-.383.43158-.46356.08997-.03815.14325.15045.2359.18042.10278.03326.21838.02942.32227.00012.21442-.06036.39685-.29138.61737-.26471.24249.02936.38208.35602.61987.41437.1051.02582.1604-.22485.26508-.1972.17834.04706.23962.34674.42096.37848.18286.03198.3327-.21313.51794-.21436.11902-.00073.18445.1709.29791.20905.10266.03448.22864.05493.32294-.00031.21021-.12311.30066-.51471.54053-.50555.28033.01062.41516.41119.66284.55127.09424.05334.21362.00983.32037.005.20679-.00928.41931.00928.61938-.04736.11554-.03265.17859-.2121.29816-.2121.11951,0,.17993.19342.29828.2121.15308.02423.31024.04742.46729.06165v-.00018c.22455.02032.44897.01929.66101-.04803.2182-.06927.25519-.45782.47455-.52234.18848-.05548.35284.22156.5484.22119.19763-.00037.35779-.24268.55475-.22339.15393.01508.20428.32611.35828.31299.2359-.0202.36951-.3678.6048-.39551.22144-.02606.40271.2514.62561.25055.2196-.00079.3952-.2301.61346-.25519.40845-.04694.8266-.0285,1.23181.04321.11816.02094.1701.22388.28992.22614.21698.00415.40381-.21613.62067-.20892.21851.00732.3938.25012.61243.25012s.3941-.23694.61243-.25012c.11877-.00714.18738.20197.30627.19482.21826-.01312.39368-.25323.6123-.25018.21832.00311.39227.21356.60455.2674.20117.05103.4151.07898.61926.04285.31805-.05621.59943-.28772.92078-.31531.91492-.07849,1.83801-.06598,2.75378,0,.31934.02301.61298.32965.92731.26532.13782-.0282-.16632-.30353-.09955-.43481.0672-.13263.25824-.13977.39929-.1554.20569-.02283.41913-.01312.61914.04248.11584.03217.17871.20874.29828.2121.11896.00348.19354-.2348.3064-.19489.24823.08783.35565.47253.61334.52026.13446.02478-.1416-.28851-.09247-.42389.03705-.10229.19507-.1629.28894-.11761.27411.13214.4248.48523.70667.5976.13623.05432.34674-.01349.41266-.15137.05414-.11334-.21655-.20538-.18365-.32758.05194-.19379.20618-.3902.38977-.43976.40088-.10822.83124-.06067,1.24078-.00024.1189.01758.1701.22394.29004.2262.21698.00415.40381-.21619.62067-.20892.22314.00745.40851.30096.62659.25073.27325-.06293.38513-.505.6618-.54755.16479-.02545.29816.22131.33435.39398.02594.12384-.15588.20355-.18304.32709-.00964.04401.04871.10614.09015.09583.11615-.02887.18817-.19745.30743-.19458.11896.00281.18445.1709.29791.20905.1026.03461.22028.03461.32288,0,.11346-.03815.17889-.21069.29779-.20905.17621.00238.31085.23163.48657.2196.25568-.0174.50006-.15222.71436-.3017.23877-.1665.35828-.50671.61969-.62866.19495-.09082.44238-.04828.63708.04279.24048.1123.3418.53668.60443.53735.2619.00116.34991-.46576.60413-.52991.21063-.05316.40393.21271.62115.22217.11902.00513.18768-.1972.30652-.18488.21936.02264.39459.25861.6142.28369,1.02319.11713,2.06091.25323,3.07526.18323.26038-.01794.35754-.41351.60565-.48346.11255-.03168.18799.21429.30725.22601.1192.01172.18774-.17761.30695-.16577.11938.01178.18787.2182.30713.22668.11981.00861.18066-.17499.29895-.18347.30841-.02216.64001-.03827.93719.0946.22998.10284.3031.51776.5437.5658.21252.04248.32324-.2746.51617-.35352.14319-.05853.31055-.08594.46716-.04761.2179.05341.39661.26282.61487.31165.30688.0686.62384.0719.92755.03125.11755-.01569.17889-.19989.29871-.19214.11926.00769.17926.22302.2984.23071.21747.01392.40436-.18567.62183-.17377.11914.00647.18469.18207.29828.22595.10272.03973.22052.04498.32336.01447.11346-.03381.17902-.20367.29803-.19958.11884.00403.18433.17773.29742.21991.10626.03955.22443.03174.33478.01447,1.01331-.15851,2.00745-.44586,3.02014-.51141.12396-.00793.18597.20844.30731.24225.29852.08295.60986.11523.91174.10388.65393-.02484,1.30151-.08612,1.94806-.13525.64648-.04913,1.2923-.08875,1.9433-.07251.12122.00305.18652.20081.30176.25568.10321.04913.21857.04633.32703.0448,1.08502-.01495,2.17377-.02527,3.26038-.0249,1.08997-.01746,2.16858.04456,3.23889.10315.15405.01031.21021-.25964.36395-.25165.11407.00598.17053.26086.28564.28827.21002.05005.39355-.12738.60358-.07825.1156.02716.17102.24536.2854.28778.396.14709.81384.30145,1.20093.255.24634-.02948.33777-.44537.58649-.474.20435-.0235.38306.28064.59082.35065.39929.13458.81842.31433,1.20996.27313.33765-.03552.54218-.46155.87543-.51575.29181-.04645.61066.10535.90466.24744.11267.05438.16321.24536.27313.31042.14862.08801.34436.21857.46844.13434.24554-.16681.20142-.84125.50922-.81982.49036.03424.9024.71405,1.38904.93481.39929.18109,1.36261.71039,1.23218.26239-.18365-.62988-1.17914-.64532-1.49823-1.30157-.17175-.35333.62457.10376.92719.2486.59564.28522,1.14935.72302,1.75256.96289.30109.11969.61847.14941.93054.17981.12677.01233.43219.08307.37415-.03949-.15802-.33337-.54999-.50671-.76373-.83374-.03302-.05042.07336-.12512.12354-.09918.40881.21204.75732.57849,1.1814.72546.40845.1416.85516.23651,1.26746.14819.29907-.06403.44226-.46136.73706-.56891.26465-.09656.56512-.04608.83801-.00116.12054.0199.1734.17883.29218.20184.20386.03955.42572.02203.64001-.02167.1651-.03369.33209-.10297.4776-.20245.1861-.12732.29199-.38605.49866-.47296.08911-.03748.06.19781.14856.20935.99091.12866,2.00732.17609,3.03064.17078.43048-.0022.87274-.04956,1.30481-.15765.22906-.05719.41583-.29724.64404-.34131.12372-.02386.1922.17273.31573.15887.12354-.01379.19763-.22998.32031-.23297.09125-.00214.06342.20837.15198.22321.81903.13678,1.65723.1814,2.49091.20532.72479.03082,1.45691.02533,2.19025.05176.73328.02643,1.46613.08453,2.19092.20868.08893.0152-.13806.14502-.15613.23981-.00873.04596.04907.10791.09186.0979.224-.05182.41315-.2478.64026-.26306.84229-.05664,1.69-.05988,2.51825.05914.74719.11847,1.43158.49469,2.17859.51959.22827.00769.41638-.24896.64496-.30127.31415-.07184.63776-.08514.94666-.06464.11969.008.17889.16107.30096.14856.12158-.01233.19501-.19171.31677-.20697.12146-.0152.1875.14417.30945.12463.18658-.03003.34717-.27527.52783-.25806.22363.0213.26794.30176.48047.34406.09082.01813.15308-.14642.25122-.18695.10919-.04517.23315-.06726.34106-.05823.11932.00995.18304.138.31122.11115.23547-.04956.43695-.27222.67871-.31384.242-.04156.42548.11084.67181.07507.13379-.01947.21881-.16699.35114-.21906.12427-.04889.25964-.0611.38916-.07196.76965-.06439,1.55011-.09796,2.34637-.11713.79645-.01917,1.60107-.02484,2.41693-.06.16064-.00696.27844-.18896.43811-.19659.68756-.0368,1.34717-.04456,1.98743-.07983.62183-.03424,1.22485-.09045,1.82452-.19897.08185.08783.16455.17737.28235.2066.117.02899.19458-.17773.31909-.18018.22577-.00458.40771.1684.63354.16272.21478-.00537.40808-.16553.62036-.19116-.06201.09039-.10913.17615-.07715.242.03198.0658.18207-.02295.30878-.08179,0,0,.00354-.02264.00684-.04443.0304.02344.06262.04211.1026.04022.33453-.01605.65131-.21228.98553-.22937.12445-.00635.1806.17688.30487.16772.22882-.01678.41913-.23438.64758-.24042.22723-.00604.39648.20996.62354.21307.2262.00305.42737-.20239.65356-.2002.22784.00232.40405.22089.63232.21887.2326-.00208.42657-.26831.65576-.23462.44788.06592.7887.51868,1.24261.54114.17609.00873-.12158-.40442.013-.51086.12512-.09894.336.04041.47681.12616.18359.11182.2572.3924.46509.44727.22009.05804.42365-.17969.64844-.15735.22736.02264.4071.23541.63092.28546.211.04724.4339.03961.64203-.00128.12018-.02362.18823-.19269.31183-.18604.12286.00659.18774.17609.30426.21967.10541.03949.22687.04651.33325.0191.11774-.03027.18781-.18921.31042-.18524.12268.00391.19012.19922.3125.20575.12268.00653.1958-.17883.31812-.17249.1225.00623.18994.1991.31226.2052.12231.00616.19519-.17987.31726-.17401.12225.00592.18994.20648.31189.20459.22516-.00348.4071-.22443.63074-.22284,2.91113.02087,5.79028.05621,8.64697.13611.21942.00604.3941.24408.61346.25519.11877.00598.17889-.21088.29791-.20905.2157.00336.39673.21533.61243.22321.19385.00714.37103-.23999.55676-.18011.21594.06952.25793.44696.47491.51245.17523.05292.3255-.21112.50757-.21582.11902-.00305.18732.19489.30627.19489.11902,0,.18738-.19763.30627-.19482.1189.00275.18445.1709.29791.20905.1026.03455.22028.03455.32288,0,.11346-.03815.17883-.20905.29779-.20905.11902,0,.18445.1709.29779.20905.10272.03455.21912.03003.323-.00012.211-.06122.38861-.2373.6051-.26935.30591-.04517.62256-.02008.92554.04309.11749.02441.17865.21149.29828.2121.11896.00067.18445-.17078.29785-.20905.1026-.03455.22034-.03455.32294,0,.11334.03821.17889.20972.29779.20905.11957-.00061.18005-.19244.29822-.2121.40582-.06769.82178-.0708,1.23181-.04309.159.01074.31842.06915.45477.15704.15588.10059.22064.42096.40131.39508.27704-.03979.38861-.48468.66199-.54761.2179-.05029.40332.25055.62646.25073.21863.00018.39459-.22845.6123-.24982.14032-.01379.33771.01538.39838.15057.05139.11505-.15631.20471-.18353.32874-.00964.04401.05334.11816.09033.09583.22766-.13715.36523-.43231.6134-.52014.11298-.03992.18762.20258.3064.19489.21912-.01434.39661-.21844.61346-.25494.20428-.03436.46454-.09894.61871.04755.12451.11841-.17548.53394-.00848.53265.263-.00195.37939-.39459.60547-.53711.09125-.0575.20947-.04364.31537-.04309.20685.00098.46466-.09894.61865.04755.12457.11841-.17548.52924-.00836.53265.26147.00543.36511-.43237.61334-.5202.11285-.03992.18732.19824.30627.19489.11963-.00336.1814-.1853.29828-.21198.20471-.04688.42358-.04688.62836-.00006.117.02673.17865.21204.29822.21198.11975,0,.18268-.17938.29828-.2121.20038-.0567.41302-.0473.62036-.04767.31207-.00061.63672-.05219.9353.04443.32947.10669.55402.49908.89526.54828.13702.01971-.13647-.29529-.08472-.4314.03912-.10284.1994-.16528.29309-.11652.20105.10468.25854.42773.46783.51239.08868.03583.04883-.20703.11902-.27496.22144-.21417.44812-.45544.73389-.55023.11707-.03888.1922.20081.31482.20239.11877.00153.20398-.25946.30579-.19446.29169.18628.34192.72473.67065.81793.18585.05273.13593-.42108.06238-.61011-.08643-.22229-.45068-.25989-.49274-.49622-.02466-.13843.28259-.17938.38763-.09344.39117.32013.59003.85181.96149,1.19739.05579.05188.02856-.1828.09723-.21252.56409-.24506,1.3822-.06445,1.74292-.58661.25378-.36749-.8573-.11737-1.28448-.07727-.21936.02057-.40076.30865-.61523.25562-.13617-.03369-.16956-.30341-.10071-.43268.07098-.13354.2655-.14496.40973-.14825,1.32874-.0304,2.6615-.05634,3.98694.04767.08282.00653.03986.1922-.00751.26465-.19904.30444-.50189.52069-.70367.823-.02466.03693.05457.12054.09033.09607.4397-.30011.78809-.74402,1.24725-1.00903.2663-.15381.58246-.20184.88489-.22168.43274-.02838,1.30225-.38232,1.29852.07855-.00403.49365-.93915.21649-1.30341.52252-.16504.13867.41937.04419.6297.04358.20734-.00067.42004.00922.62048-.04742.11536-.03253.17859-.20166.29755-.21167.09625-.00818.15485.20526.24408.16595.1889-.08325.24164-.383.43158-.46356.08997-.03815.14325.15045.2359.18042.10278.03326.21838.02942.32227.00012.21442-.06036.39685-.29138.61737-.26471.24249.02936.38208.35602.61987.41437.1051.02582.1604-.22485.26508-.1972.17834.04706.23962.34674.42096.37848.18286.03198.3327-.21313.51794-.21436.11902-.00073.18445.1709.29791.20905.10266.03448.22864.05493.32294-.00031.21021-.12311.30066-.51471.54053-.50555.28033.01062.41516.41119.66284.55127.09424.05334.21362.00983.32037.005.20679-.00928.41931.00928.61938-.04736.11554-.03265.17859-.2121.29816-.2121.11951,0,.17993.19342.29828.2121.15308.02423.31024.04742.46729.06165v-.00018c.22455.02032.44897.01929.66101-.04803.2182-.06927.25519-.45782.47455-.52234.18848-.05548.35284.22156.5484.22119.19763-.00037.35779-.24268.55475-.22339.15393.01508.20428.32611.35828.31299.2359-.0202.36951-.3678.6048-.39551.22144-.02606.40271.2514.62561.25055.2196-.00079.3952-.2301.61346-.25519.40845-.04694.8266-.0285,1.23181.04321.11816.02094.1701.22388.28992.22614.21698.00415.40381-.21613.62067-.20892.21851.00732.3938.25012.61243.25012s.3941-.23694.61243-.25012c.11877-.00714.18738.20197.30627.19482.21826-.01312.39368-.25323.6123-.25018.21832.00311.39227.21356.60455.2674.20117.05103.4151.07898.61926.04285.31805-.05621.59943-.28772.92078-.31531.91492-.07849,1.83801-.06598,2.75378,0,.31934.02301.61298.32965.92731.26532.13782-.0282-.16632-.30353-.09955-.43481.0672-.13263.25824-.13977.39929-.1554.20569-.02283.41913-.01312.61914.04248.11584.03217.17871.20874.29828.2121.11896.00348.19354-.2348.3064-.19489.24823.08783.35565.47253.61334.52026.13446.02478-.1416-.28851-.09247-.42389.03705-.10229.19507-.1629.28894-.11761.27411.13214.4248.48523.70667.5976.13623.05432.34674-.01349.41266-.15137.05414-.11334-.21655-.20538-.18365-.32758.05194-.19379.20618-.3902.38977-.43976.40088-.10822.83124-.06067,1.24078-.00024.1189.01758.1701.22394.29004.2262.21698.00415.40381-.21619.62067-.20892.22314.00745.40851.30096.62659.25073.27325-.06293.38513-.505.6618-.54755.16479-.02545.29816.22131.33435.39398.02594.12384-.15588.20355-.18304.32709-.00964.04401.04871.10614.09015.09583.11615-.02887.18817-.19745.30743-.19458.11896.00281.18445.1709.29791.20905.1026.03461.22028.03461.32288,0,.11346-.03815.17889-.21069.29779-.20905.17621.00238.31085.23163.48657.2196.25568-.0174.50006-.15222.71436-.3017.23877-.1665.35828-.50671.61969-.62866.19495-.09082.44238-.04828.63708.04279.24048.1123.3418.53668.60443.53735.2619.00116.34991-.46576.60413-.52991.21063-.05316.40393.21271.62115.22217.11902.00513.18768-.1972.30652-.18488.21936.02264.39459.25861.6142.28369.62164.07117,1.24823.14386,1.87207.17853V-1Z"></path>
</svg>
