<?xml version="1.0" encoding="UTF-8"?>
<svg xmlns="http://www.w3.org/2000/svg" id="a" viewBox="0 0 170 270">
  <defs>
    <style>.b{fill:#010101;stroke-width:0px;}</style>
  </defs>
  <path class="b" d="m212.69312,2.06873c-1.07764-.01898-2.15515-.0376-3.22601-.06757-.21948-.0061-.39417-.24414-.61353-.25525-.11871-.00598-.17889.21088-.29785.20911-.2157-.00342-.39673-.21533-.61243-.22327-.19391-.00714-.37103.23999-.55676.18011-.21594-.06952-.25793-.44696-.47491-.51245-.17529-.05292-.3255.21112-.50763.21582-.11896.00305-.18726-.19489-.30627-.19489-.11896,0-.18738.19763-.30627.19482-.11884-.00275-.18445-.1709-.29785-.20905-.1026-.03455-.22034-.03455-.32294,0-.1134.03815-.17877.20905-.29779.20905-.11896,0-.18445-.1709-.29773-.20905-.10272-.03455-.21912-.03003-.32306.00012-.21094.06122-.38855.2373-.6051.26935-.30591.04523-.62256.02014-.92554-.04303-.11743-.02448-.17865-.21155-.29822-.21216-.11902-.00061-.18445.17084-.29791.20905-.1026.03455-.22034.03455-.32294,0-.11328-.03815-.17889-.20966-.29773-.20905-.11963.00061-.18011.19244-.29828.21216-.40582.06769-.82178.07074-1.23181.04303-.159-.01074-.31842-.06915-.45477-.15704-.15588-.10052-.22064-.4209-.40131-.39502-.27704.03979-.38861.48468-.66199.54761-.2179.05029-.40332-.25055-.6264-.25073-.21869-.00018-.39465.22839-.61237.24982-.14032.01379-.33771-.01538-.39838-.15057-.05139-.11505.15631-.20471.18353-.32874.00964-.04401-.05334-.11816-.09033-.09583-.2276.13715-.36523.43231-.6134.52014-.11298.03992-.18762-.20258-.3064-.19489-.21912.01434-.39661.21844-.61346.25494-.20428.03436-.46454.09888-.61865-.04761-.12457-.11841.17548-.53387.00848-.53259-.263.00189-.37939.39459-.60547.53705-.09131.0575-.20947.04364-.31537.04315-.20685-.00098-.46466.09894-.61871-.04761-.12451-.11841.17554-.52924.00842-.53259-.26147-.00543-.36517.43231-.6134.52014-.11285.03992-.18726-.19818-.30627-.19489-.11957.00336-.1814.1853-.29822.21198-.20477.04694-.42365.04694-.62836.00006-.117-.02673-.17871-.21204-.29828-.21198-.11969,0-.18268.17938-.29822.21216-.20038.05664-.41309.04724-.62042.04761-.31201.00061-.63672.05225-.93524-.04443-.32947-.10669-.55408-.49902-.89532-.54822-.13696-.01978.13654.29523.08478.4314-.03912.10278-.1994.16522-.29309.11652-.20105-.10468-.25854-.4278-.46783-.51239-.08868-.03589-.04889.20697-.11908.27496-.22137.21417-.44812.45544-.73389.55023-.11707.03882-.19214-.20087-.31482-.20239-.11877-.00153-.20392.2594-.30573.1944-.29169-.18622-.34198-.72467-.67065-.81787-.18591-.05273-.13593.42102-.06244.61011.08649.22229.45068.25989.4928.49622.02466.13837-.28265.17932-.38763.09344-.39117-.32013-.59003-.85181-.96155-1.19739-.05573-.05188-.0285.18274-.09717.21252-.56409.24506-1.3822.06445-1.74292.58661-.25378.36749.8573.11737,1.28448.07727.21936-.02057.40076-.30872.61523-.25568.13617.03375.16956.30341.10071.43274-.07098.13348-.2655.1449-.40973.14825-1.32874.0304-2.6615.05634-3.987-.04773-.08276-.00653-.03986-.1922.00757-.26465.19904-.30438.50189-.52063.70367-.823.02466-.03693-.05457-.12054-.09033-.09601-.4397.30005-.78809.74402-1.24731,1.00903-.26624.15375-.5824.20184-.88483.22162-.43274.02844-1.30225.38232-1.29858-.07849.00409-.49365.93921-.21649,1.30347-.52252.16498-.13867-.41937-.04419-.6297-.04358-.2074.00067-.42004-.00916-.62048.04742-.11536.03253-.17859.20166-.29755.21167-.09631.00818-.15485-.20526-.24408-.16595-.1889.08325-.24164.383-.43158.46356-.08997.03815-.14325-.15045-.2359-.18042-.10278-.03326-.21838-.02942-.32227-.00012-.21442.06036-.39691.29138-.61737.26471-.24249-.02936-.38208-.35602-.61987-.41437-.1051-.02582-.1604.22485-.26508.1972-.17834-.04706-.23962-.34674-.42096-.37848-.18286-.03198-.3327.21313-.51794.21429-.11902.00079-.18445-.17084-.29791-.20905-.10266-.03448-.2287-.05487-.32294.00031-.21021.12311-.30066.51471-.54053.50555-.28033-.01056-.41516-.41113-.66284-.55121-.09424-.05334-.21362-.00989-.32037-.005-.20679.00928-.41931-.00928-.61938.0473-.11554.03265-.17859.21216-.29816.21216-.11951,0-.17993-.19348-.29828-.21216-.09149-.01447-.18573-.02484-.27924-.03687v-.02472h.00006c-.22455-.02026-.44897-.01929-.66101.04803-.2182.06927-.25519.45776-.47455.52234-.18848.05548-.35284-.22156-.5484-.22119-.19763.00037-.35779.24268-.55475.22339-.15393-.01508-.20428-.32617-.35828-.31299-.2359.0202-.36951.3678-.6048.39551-.22144.02606-.40271-.2514-.62561-.25055-.2196.00079-.3952.2301-.61346.25519-.40845.04694-.8266.0285-1.23181-.04321-.11816-.02094-.1701-.22394-.28992-.2262-.21698-.00409-.40381.21619-.62067.20898-.21857-.00739-.3938-.25012-.61243-.25012s-.39417.23694-.61243.25012c-.11877.00714-.18738-.20203-.30627-.19482-.21832.01312-.39368.25323-.6123.25018-.21832-.00311-.39227-.21362-.60455-.2674-.20117-.05103-.4151-.07898-.61926-.04285-.31805.05621-.59943.28772-.92078.31531-.91492.07849-1.83801.06598-2.75372,0-.3194-.02301-.61304-.32965-.92731-.26532-.13788.02826.16626.30353.09949.43481-.0672.13263-.25824.13977-.39929.1554-.20569.02283-.41913.01318-.61914-.04242-.11584-.03217-.17871-.20874-.29828-.21216-.11896-.00342-.19354.2348-.3064.19489-.24823-.08783-.35565-.47253-.61334-.5202-.13446-.02484.1416.28845.09241.42389-.03699.10229-.19501.16284-.28894.11761-.27405-.13214-.42474-.48529-.7066-.5976-.13623-.05438-.34674.01349-.41266.15137-.05414.11334.21649.20538.18359.32758-.05188.19379-.20612.3902-.38977.43976-.40082.10828-.83118.06067-1.24072.00024-.1189-.01758-.1701-.22394-.29004-.2262-.21698-.00409-.40375.21625-.62067.20898-.22314-.00751-.40851-.30103-.62659-.25079-.27325.06299-.38519.505-.6618.54755-.16479.02545-.29816-.22131-.33435-.39392-.02594-.1239.15588-.20355.18304-.32715.00964-.04395-.04871-.10608-.09015-.09583-.11615.02893-.18817.19745-.30743.19458-.11896-.00281-.18445-.1709-.29791-.20905-.1026-.03461-.22028-.03461-.32288,0-.11346.03815-.17889.21069-.29779.20905-.17621-.00238-.31085-.23163-.48657-.2196-.25568.01746-.50006.15228-.71436.3017-.23877.1665-.35828.50677-.61969.62866-.19495.09082-.44238.04828-.63708-.04272-.24048-.11237-.3418-.53674-.60443-.53735-.2619-.00116-.34991.46576-.60419.52991-.21063.05316-.40387-.21271-.62115-.22217-.11896-.00513-.18762.1972-.30646.18494-.21936-.02264-.39465-.25867-.6142-.28375-1.02319-.11707-2.06091-.25323-3.07526-.18323-.26038.01794-.35754.41351-.60571.48352-.11249.03162-.18793-.21436-.30719-.22607s-.18774.17767-.30701.16583c-.11932-.01178-.18787-.2182-.30707-.22675-.11981-.00861-.18066.17499-.29895.18347-.30841.02222-.64001.03833-.93726-.0946-.22992-.10278-.30304-.5177-.54364-.5658-.21252-.04242-.32324.27466-.51617.35358-.14319.05847-.31055.08594-.46716.04755-.21796-.05341-.39661-.26276-.61487-.31158-.30688-.06866-.6239-.0719-.92755-.03131-.11761.01575-.17889.19995-.29871.19214-.11926-.00763-.17926-.22302-.2984-.23065-.21747-.01392-.40436.18567-.62183.17377-.11914-.00647-.18469-.18213-.29828-.22601-.10272-.03973-.22052-.04492-.32336-.0144-.11346.03381-.17902.20367-.29803.19958-.11884-.00409-.18433-.17773-.29742-.21991-.10626-.03955-.22443-.03174-.33478-.01447-1.01331.15845-2.00745.4458-3.02014.51135-.12396.008-.18597-.20837-.30731-.24219-.29852-.08301-.60986-.1153-.91174-.10388-.65399.02484-1.30151.08612-1.94806.13525-.64648.04913-1.2923.08875-1.9433.07251-.12122-.00305-.18658-.20087-.30176-.25568-.10321-.04919-.21857-.04633-.32703-.04486-1.08502.01501-2.17377.02527-3.26038.0249-1.08997.01752-2.16858-.04449-3.23889-.10309-.15405-.01038-.21021.25964-.36395.25159-.11407-.00592-.17053-.2608-.28564-.28821-.21002-.05011-.39355.12738-.60358.07825-.11554-.02716-.17102-.24536-.2854-.28784-.396-.14703-.81384-.30145-1.20093-.255-.24634.02954-.33777.44543-.58649.47406-.20435.0235-.383-.28064-.59082-.35065-.39929-.13458-.81842-.31439-1.20996-.27313-.33765.03546-.54218.46155-.87543.51569-.29181.04645-.61066-.10529-.90466-.24744-.11267-.05438-.16327-.2453-.27313-.31036-.14862-.08801-.34436-.21863-.46844-.13434-.24554.16681-.20142.84119-.50922.81976-.49036-.03424-.90247-.71405-1.38904-.93481-.39929-.18109-1.36261-.71033-1.23218-.26239.18365.62988,1.17914.64532,1.49823,1.30157.17175.35339-.62457-.10376-.92719-.2486-.59564-.28522-1.14935-.72302-1.75256-.96289-.30109-.11969-.61847-.14941-.93054-.17981-.12677-.01233-.43219-.08307-.37415.03949.15802.33337.54999.50671.76373.83374.03302.05042-.07336.12512-.12354.09918-.40881-.21204-.75732-.57849-1.1814-.72546-.40845-.1416-.85516-.23651-1.26746-.14819-.29907.06403-.44226.46136-.73706.56891-.26465.09656-.56512.04608-.83801.00116-.12054-.0199-.1734-.17883-.29218-.20184-.20386-.03955-.42572-.02203-.64001.02167-.1651.03363-.33209.10291-.4776.20239-.1861.12732-.29199.38611-.49866.47296-.08911.03748-.06-.19781-.14856-.20929-.99091-.12872-2.00732-.17609-3.03064-.17084-.43048.0022-.87274.04956-1.30481.15765-.22906.05725-.41583.29724-.64404.34131-.12372.02393-.1922-.17267-.31573-.15881-.12354.01379-.19763.22998-.32031.23291-.09125.00214-.06342-.20831-.15198-.22314-.81903-.13678-1.65723-.1814-2.49091-.20538-.72479-.03076-1.45691-.02527-2.19025-.0517-.73328-.02643-1.46613-.08453-2.19092-.20868-.08893-.0152.13806-.14502.15613-.23981.00873-.04596-.04907-.10791-.09186-.0979-.22394.05182-.41315.24774-.64026.26306-.84229.05658-1.69.05988-2.51825-.05914-.74719-.11847-1.43158-.49469-2.17853-.51965-.22833-.00763-.41644.24902-.64502.30127-.31415.07184-.63776.08514-.94666.06464-.11969-.00793-.17889-.16101-.3009-.14856-.12164.01239-.19507.19177-.31677.20703-.12152.01514-.18756-.14423-.30951-.12463-.18652.03003-.34717.27521-.52783.25806-.22363-.0213-.26794-.30176-.48047-.34406-.09082-.01813-.15308.14642-.25122.18695-.10919.04517-.23315.06726-.34106.05823-.11932-.00995-.18298-.138-.31122-.11115-.23547.04956-.43695.27222-.67871.31384-.24194.04156-.42548-.11084-.67181-.07507-.13379.01947-.21881.16699-.35114.21906-.12427.04889-.25964.0611-.38916.07196-.76965.06439-1.55011.09796-2.34637.11713-.79639.01917-1.60107.02484-2.41693.06-.16064.00696-.27844.18896-.43811.19659-.68756.0368-1.34717.04456-1.98743.07977-.62183.03424-1.22485.09045-1.82452.19904-.08185-.08783-.16449-.17737-.28235-.2066-.11694-.02899-.19458.17773-.31909.18018-.22571.00458-.40771-.1684-.63354-.16272-.21478.00537-.40808.16553-.62036.19116.06207-.09039.10913-.17615.07715-.242-.03198-.0658-.18207.02289-.30878.08179,0,0-.00354.02264-.00684.04443-.0304-.02344-.06262-.04211-.1026-.04016-.33453.01605-.65131.21222-.98553.22931-.12445.00635-.1806-.17688-.30487-.16772-.22882.01678-.41913.23438-.64758.24048-.22723.00598-.39648-.21002-.62347-.21307-.2262-.00305-.42743.20233-.65363.20013-.22784-.00232-.40399-.22089-.63232-.21881-.23254.00208-.42657.26825-.6557.23462-.44794-.06592-.78876-.51874-1.24268-.54114-.17609-.00873.12158.40442-.013.51086-.12512.09894-.33594-.04047-.47675-.12622-.18365-.11182-.25726-.3924-.46515-.4472-.22009-.05811-.42365.17969-.64838.15729-.22742-.02258-.4071-.23535-.63098-.28546-.21094-.04718-.43384-.03961-.64203.00134-.12018.02362-.18823.19269-.31177.18604-.12292-.00659-.18781-.17609-.30432-.21973-.10541-.03949-.22687-.04651-.33325-.01904-.11768.03027-.18774.18921-.31042.18524-.12262-.00397-.19006-.19922-.3125-.20581-.12262-.00653-.19574.17883-.31805.17255-.12256-.00629-.19-.1991-.31232-.20526-.12225-.0061-.19513.17993-.3172.17401-.12231-.00586-.19-.20648-.31195-.20459-.2251.00354-.4071.22449-.63074.22284-2.91113-.02087-5.79022-.05615-8.64691-.13605-.21948-.0061-.39417-.24414-.61353-.25525-.11877-.00598-.17889.21088-.29791.20911-.2157-.00342-.39673-.21533-.61243-.22327-.19385-.00714-.37097.23999-.55676.18011-.21594-.06952-.25787-.44696-.47491-.51245-.17523-.05292-.32544.21112-.50757.21582-.11896.00305-.18726-.19489-.30627-.19489-.11896,0-.18738.19763-.30627.19482-.11884-.00275-.18445-.1709-.29791-.20905-.1026-.03455-.22028-.03455-.32288,0-.11346.03815-.17877.20905-.29779.20905-.11896,0-.18445-.1709-.29779-.20905-.10266-.03455-.21912-.03003-.323.00012-.211.06122-.38861.2373-.6051.26935-.30591.04523-.62256.02014-.92554-.04303-.11749-.02448-.17865-.21155-.29828-.21216-.11896-.00061-.18445.17084-.29785.20905-.1026.03455-.22034.03455-.32294,0-.11334-.03815-.17889-.20966-.29779-.20905-.11957.00061-.18005.19244-.29822.21216-.40582.06769-.82178.07074-1.23181.04303-.159-.01074-.31842-.06915-.45477-.15704-.15588-.10052-.22064-.4209-.40131-.39502-.27704.03979-.38861.48468-.66199.54761-.2179.05029-.40332-.25055-.62646-.25073-.21863-.00018-.39459.22839-.6123.24982-.14032.01379-.33777-.01538-.39838-.15057-.05139-.11505.15625-.20471.18353-.32874.00964-.04401-.05334-.11816-.09033-.09583-.22766.13715-.3653.43231-.6134.52014-.11298.03992-.18762-.20258-.3064-.19489-.21912.01434-.39661.21844-.61346.25494-.20428.03436-.46454.09888-.61871-.04761-.12451-.11841.17548-.53387.00848-.53259-.26294.00189-.37939.39459-.60547.53705-.09125.0575-.20941.04364-.31531.04315-.20685-.00098-.46466.09894-.61871-.04761-.12451-.11841.17548-.52924.00836-.53259-.26141-.00543-.36511.43231-.61334.52014-.11285.03992-.18726-.19818-.30627-.19489-.11957.00336-.1814.1853-.29828.21198-.20471.04694-.42358.04694-.6283.00006-.117-.02673-.17871-.21204-.29828-.21198-.11969,0-.18268.17938-.29822.21216-.20038.05664-.41309.04724-.62042.04761-.31207.00061-.63672.05225-.93524-.04443-.32947-.10669-.55408-.49902-.89532-.54822-.13696-.01978.13654.29523.08472.4314-.03906.10278-.19934.16522-.29303.11652-.20111-.10468-.25861-.4278-.46783-.51239-.08868-.03589-.04889.20697-.11908.27496-.22137.21417-.44812.45544-.73389.55023-.11707.03882-.19214-.20087-.31482-.20239-.11877-.00153-.20398.2594-.30573.1944-.29175-.18622-.34198-.72467-.67072-.81787-.18585-.05273-.13593.42102-.06238.61011.08643.22229.45068.25989.4928.49622.02466.13837-.28265.17932-.38763.09344-.39117-.32013-.59003-.85181-.96155-1.19739-.05579-.05188-.0285.18274-.09717.21252-.56415.24506-1.3822.06445-1.74292.58661-.25378.36749.8573.11737,1.28448.07727.21936-.02057.40076-.30872.61523-.25568.13617.03375.16956.30341.10071.43274-.07098.13348-.2655.1449-.40973.14825-1.3288.0304-2.66156.05634-3.987-.04773-.08276-.00653-.03986-.1922.00757-.26465.19904-.30438.50183-.52063.70367-.823.0246-.03693-.05457-.12054-.09039-.09601-.43964.30005-.78809.74402-1.24725,1.00903-.2663.15375-.5824.20184-.88483.22162-.43274.02844-1.30225.38232-1.29858-.07849.00409-.49365.93921-.21649,1.30347-.52252.16498-.13867-.41937-.04419-.6297-.04358-.2074.00067-.4201-.00916-.62048.04742-.11536.03253-.17865.20166-.29755.21167-.09631.00818-.15485-.20526-.24408-.16595-.1889.08325-.24164.383-.43158.46356-.08997.03815-.14331-.15045-.2359-.18042-.10278-.03326-.21844-.02942-.32227-.00012-.21448.06036-.39691.29138-.61737.26471-.24255-.02936-.38208-.35602-.61993-.41437-.10504-.02582-.16034.22485-.26501.1972-.17841-.04706-.23962-.34674-.42096-.37848-.18286-.03198-.3327.21313-.51794.21429-.11902.00079-.18451-.17084-.29791-.20905-.10266-.03448-.2287-.05487-.323.00031-.21014.12311-.3006.51471-.54047.50555-.28033-.01056-.41516-.41113-.66284-.55121-.09424-.05334-.21362-.00989-.32037-.005-.20679.00928-.41931-.00928-.61938.0473-.11554.03265-.17859.21216-.29816.21216-.11951,0-.17993-.19348-.29828-.21216-.13934-.02197-.28241-.04169-.42535-.05609l-.00159-.00171c-.005-.00043-.00983-.00006-.01483-.00049-.00854-.00085-.01691-.00256-.02551-.00336v.00256c-.21039-.01691-.41663-.0177-.61578.04553-.2182.06927-.25519.45776-.47455.52234-.18848.05548-.35284-.22156-.5484-.22119-.19763.00037-.35779.24268-.55475.22339-.15393-.01508-.20428-.32617-.35828-.31299-.2359.0202-.36951.3678-.6048.39551-.22144.02606-.40271-.2514-.62561-.25055-.2196.00079-.3952.2301-.61346.25519-.40845.04694-.8266.0285-1.23181-.04321-.11816-.02094-.1701-.22394-.28992-.2262-.21698-.00409-.40381.21619-.62067.20898-.21857-.00739-.3938-.25012-.61243-.25012s-.39417.23694-.61243.25012c-.11877.00714-.18738-.20203-.30627-.19482-.21832.01312-.39368.25323-.6123.25018-.21832-.00311-.39227-.21362-.60455-.2674-.20117-.05103-.4151-.07898-.61926-.04285-.31805.05621-.59943.28772-.92078.31531-.91492.07849-1.83801.06598-2.75372,0-.3194-.02301-.61304-.32965-.92731-.26532-.13788.02826.16626.30353.09949.43481-.0672.13263-.25824.13977-.39929.1554-.20569.02283-.41913.01318-.61914-.04242-.11584-.03217-.17871-.20874-.29828-.21216-.11896-.00342-.19354.2348-.3064.19489-.24823-.08783-.35565-.47253-.61334-.5202-.13446-.02484.1416.28845.09241.42389-.03699.10229-.19501.16284-.28894.11761-.27405-.13214-.42474-.48529-.7066-.5976-.13623-.05438-.34674.01349-.41266.15137-.05414.11334.21649.20538.18359.32758-.05188.19379-.20612.3902-.38977.43976-.40082.10828-.83118.06067-1.24072.00024-.1189-.01758-.1701-.22394-.29004-.2262-.21698-.00409-.40375.21625-.62067.20898-.22314-.00751-.40851-.30103-.62659-.25079-.27325.06299-.38519.505-.6618.54755-.16479.02545-.29816-.22131-.33435-.39392-.02594-.1239.15588-.20355.18304-.32715.00964-.04395-.04871-.10608-.09015-.09583-.11615.02893-.18817.19745-.30743.19458-.11896-.00281-.18445-.1709-.29791-.20905-.1026-.03461-.22028-.03461-.32288,0-.11346.03815-.17889.21069-.29779.20905-.17621-.00238-.31085-.23163-.48657-.2196-.25568.01746-.50006.15228-.71436.3017-.23877.1665-.35828.50677-.61969.62866-.19495.09082-.44238.04828-.63708-.04272-.24048-.11237-.3418-.53674-.60443-.53735-.2619-.00116-.34991.46576-.60419.52991-.21063.05316-.40387-.21271-.62115-.22217-.11896-.00513-.18762.1972-.30646.18494-.21936-.02264-.39465-.25867-.6142-.28375-1.02319-.11707-2.06091-.25323-3.07526-.18323-.26038.01794-.35754.41351-.60571.48352-.11249.03162-.18793-.21436-.30719-.22607s-.18774.17767-.30701.16583c-.11932-.01178-.18787-.2182-.30707-.22675-.11981-.00861-.18066.17499-.29895.18347-.30841.02222-.64001.03833-.93726-.0946-.22992-.10278-.30304-.5177-.54364-.5658-.21252-.04242-.32324.27466-.51617.35358-.14319.05847-.31055.08594-.46716.04755-.21796-.05341-.39661-.26276-.61487-.31158-.30688-.06866-.6239-.0719-.92755-.03131-.11761.01575-.17889.19995-.29871.19214-.11926-.00763-.17926-.22302-.2984-.23065-.21747-.01392-.40436.18567-.62183.17377-.11914-.00647-.18469-.18213-.29828-.22601-.10272-.03973-.22052-.04492-.32336-.0144-.11346.03381-.17902.20367-.29803.19958-.11884-.00409-.18433-.17773-.29742-.21991-.10626-.03955-.22443-.03174-.33478-.01447-.91718.14343-1.81927.3844-2.73297.479v268.13489h255.38623V2.06873Z"></path>
</svg>
